HIERARCHY
ROOT Pelvis
{
	OFFSET 0.000000 0.000000 0.000000
	CHANNELS 6 Xposition Yposition Zposition Xrotation Yrotation Zrotation
	JOINT LeftUpLeg_virtual
	{
		OFFSET 0.000000 0.000000 0.000000
		CHANNELS 3 Xrotation Yrotation Zrotation
		JOINT LeftUpLeg
		{
			OFFSET 18.735201 -5.666702 -4.541200
			CHANNELS 3 Xrotation Yrotation Zrotation
			JOINT LeftLeg
			{
				OFFSET -0.021200 -31.938179 0.493100
				CHANNELS 3 Xrotation Yrotation Zrotation
				JOINT LeftFoot
				{
					OFFSET 0.021200 -31.938179 -4.336299
					CHANNELS 3 Xrotation Yrotation Zrotation
					JOINT LeftToeBase
					{
						OFFSET 0.943001 -26.722000 15.023500
						CHANNELS 3 Xrotation Yrotation Zrotation
						End Site
						{
							OFFSET 0 0 0
						}
					}
				}
			}
		}
	}
	JOINT RightUpLeg_virtual
	{
		OFFSET 0.000000 0.000000 0.000000
		CHANNELS 3 Xrotation Yrotation Zrotation
		JOINT RightUpLeg
		{
			OFFSET -18.735201 -5.666702 -4.541200
			CHANNELS 3 Xrotation Yrotation Zrotation
			JOINT RightLeg
			{
				OFFSET 0.018946 -31.938133 0.493100
				CHANNELS 3 Xrotation Yrotation Zrotation
				JOINT RightFoot
				{
					OFFSET -0.018946 -31.938126 -4.336299
					CHANNELS 3 Xrotation Yrotation Zrotation
					JOINT RightToeBase
					{
						OFFSET -0.943001 -26.722004 15.023500
						CHANNELS 3 Xrotation Yrotation Zrotation
						End Site
						{
							OFFSET 0 0 0
						}
					}
				}
			}
		}
	}
	JOINT Hips_virtual
	{
		OFFSET 0.000000 0.000000 0.000000
		CHANNELS 3 Xrotation Yrotation Zrotation
		JOINT Hips
		{
			OFFSET -0.000000 -0.000000 -0.000000
			CHANNELS 3 Xrotation Yrotation Zrotation
			JOINT Spine
			{
				OFFSET 0.000000 10.199997 -0.299500
				CHANNELS 3 Xrotation Yrotation Zrotation
				JOINT Spine1
				{
					OFFSET 0.000000 11.900002 -1.516600
					CHANNELS 3 Xrotation Yrotation Zrotation
					JOINT Spine2
					{
						OFFSET 0.000000 13.600006 -2.842500
						CHANNELS 3 Xrotation Yrotation Zrotation
						JOINT Neck_virtual
						{
							OFFSET 0.000000 0.000000 0.000000
							CHANNELS 3 Xrotation Yrotation Zrotation
							JOINT Neck
							{
								OFFSET 0.000000 9.624100 -2.890100
								CHANNELS 3 Xrotation Yrotation Zrotation
								JOINT Head
								{
									OFFSET 0.000000 14.068802 -1.351900
									CHANNELS 3 Xrotation Yrotation Zrotation
									End Site
									{
										OFFSET 0 0 0
									}
								}
							}
						}
						JOINT LeftShoulder_virtual
						{
							OFFSET 0.000000 0.000000 0.000000
							CHANNELS 3 Xrotation Yrotation Zrotation
							JOINT LeftShoulder
							{
								OFFSET 15.263000 10.923401 -0.547700
								CHANNELS 3 Xrotation Yrotation Zrotation
								JOINT LeftArm
								{
									OFFSET 25.438599 -2.830597 -13.032500
									CHANNELS 3 Xrotation Yrotation Zrotation
									JOINT LeftForeArm
									{
										OFFSET 29.960503 0.000000 0.000000
										CHANNELS 3 Xrotation Yrotation Zrotation
										JOINT LeftHand
										{
											OFFSET 27.849251 0.000000 0.000000
											CHANNELS 3 Xrotation Yrotation Zrotation
											End Site
											{
												OFFSET 0 0 0
											}
										}
									}
								}
							}
						}
						JOINT RightShoulder_virtual
						{
							OFFSET 0.000000 0.000000 0.000000
							CHANNELS 3 Xrotation Yrotation Zrotation
							JOINT RightShoulder
							{
								OFFSET -15.263000 10.923401 -0.547700
								CHANNELS 3 Xrotation Yrotation Zrotation
								JOINT RightArm
								{
									OFFSET -25.438599 -2.830597 -13.032500
									CHANNELS 3 Xrotation Yrotation Zrotation
									JOINT RightForeArm
									{
										OFFSET -29.960503 0.000000 0.000000
										CHANNELS 3 Xrotation Yrotation Zrotation
										JOINT RightHand
										{
											OFFSET -27.849251 0.000000 0.000000
											CHANNELS 3 Xrotation Yrotation Zrotation
											End Site
											{
												OFFSET 0 0 0
											}
										}
									}
								}
							}
						}
					}
				}
			}
		}
	}
}
MOTION
Frames: 12
Frame Time: 0.03333333
-1.957165 79.790756 6.464479 0.000000 0.000000 0.000000 0.910400 -43.287314 5.579360 -40.537709 8.130830 23.883181 64.711637 -11.467305 -1.144764 -25.792604 -8.983269 -12.150346 0.000000 0.000000 0.000000 0.910400 -43.287314 5.579360 -22.163824 -6.261604 -35.951875 60.510674 -6.392981 -6.212204 -29.337350 -10.240099 29.498166 0.000000 0.000000 0.000000 0.910400 -43.287314 5.579360 0.000000 0.000001 0.000000 9.389336 12.917911 -4.795959 1.751731 3.638376 -1.540306 0.000000 0.000000 0.000000 1.716102 3.636637 -1.514277 0.532097 3.056691 -1.108568 0.000000 0.000000 0.000000 1.716102 3.636637 -1.514277 0.177125 3.280458 -2.501100 0.608043 -3.857609 -44.118852 -179.999991 -47.293599 -180.000005 0.000000 0.000000 0.000000 1.716102 3.636637 -1.514277 0.028598 13.490903 -3.638379 -50.086699 20.453900 65.076779 179.999882 74.209022 -179.999909 0.000000 0.000000 0.000000 
-1.859316 79.934532 6.365559 0.000000 0.000000 0.000000 1.517167 -47.275591 6.090142 -38.352970 9.269189 24.609093 64.236058 -11.611220 -1.919458 -27.233076 -6.210595 -11.849133 0.000000 0.000000 0.000000 1.517167 -47.275591 6.090142 -25.511378 -4.031037 -35.086422 60.988262 -4.411862 -7.990269 -28.250359 -9.716564 28.702261 0.000000 0.000000 0.000000 1.517167 -47.275591 6.090142 0.000000 0.000000 0.000000 9.420742 13.248710 -4.827178 1.781056 3.670401 -1.552475 0.000000 0.000000 0.000000 1.745711 3.669430 -1.526467 0.494631 3.339885 -1.189552 0.000000 0.000000 0.000000 1.745711 3.669430 -1.526467 0.097889 3.823974 -2.193749 0.257139 0.811130 -40.840249 -179.999991 -46.688096 180.000005 0.000000 0.000000 0.000000 1.745711 3.669430 -1.526467 0.200218 11.353365 -3.117911 -51.036946 23.059965 69.349014 179.999786 73.542286 -179.999800 0.000000 0.000000 0.000000 
-1.768498 80.027534 6.194172 0.000000 0.000000 0.000000 2.370345 -51.289113 6.629586 -36.294590 10.128494 25.235234 63.874522 -11.708433 -2.644293 -28.745725 -3.191963 -11.582631 0.000000 0.000000 0.000000 2.370345 -51.289113 6.629586 -29.073578 -2.270039 -33.559520 61.344162 -2.417299 -10.060093 -26.988050 -9.172915 27.920300 0.000000 0.000000 0.000000 2.370345 -51.289113 6.629586 0.000000 -0.000004 0.000000 9.319662 13.260741 -4.821993 1.771371 3.585720 -1.596584 0.000000 0.000000 0.000000 1.740268 3.584198 -1.570213 0.441746 3.655560 -1.234333 0.000000 0.000000 0.000000 1.740268 3.584198 -1.570213 -0.027859 4.558137 -1.523011 -2.682215 4.894932 -37.047127 -180.000005 -48.226388 -179.999991 0.000000 0.000000 0.000000 1.740268 3.584198 -1.570213 0.408007 9.523256 -2.592240 -52.008663 26.162968 72.996178 179.999691 73.076221 -179.999691 0.000000 0.000000 0.000000 
-1.670952 80.067497 5.948854 0.000000 0.000000 0.000000 3.223239 -54.946225 7.025977 -34.472047 10.580285 25.677294 63.733725 -11.818403 -3.148324 -30.204374 -0.080656 -11.418950 0.000000 0.000000 0.000000 3.223239 -54.946225 7.025977 -32.184879 -0.487717 -32.584927 61.871139 -0.227300 -10.130678 -25.912988 -8.084961 26.393432 0.000000 0.000000 0.000000 3.223239 -54.946225 7.025977 0.000000 -0.000001 0.000000 9.199409 12.901863 -4.746771 1.764131 3.368147 -1.656708 0.000000 0.000000 0.000000 1.742112 3.364809 -1.629985 0.380691 3.970730 -1.244462 0.000000 0.000000 0.000000 1.742112 3.364809 -1.629985 -0.179992 5.325322 -0.579759 -7.789438 6.885918 -33.013152 -179.999950 -52.729720 -179.999950 0.000000 0.000000 0.000000 1.742112 3.364809 -1.629985 0.645879 8.044687 -2.081284 -52.775670 29.458527 75.713849 179.999937 72.419294 -179.999950 0.000000 0.000000 0.000000 
-1.559497 80.074501 5.658295 0.000000 0.000000 0.000000 3.679869 -57.880587 6.959430 -32.937675 10.510779 25.901667 63.876018 -11.924813 -3.356179 -31.470527 2.841821 -11.337790 0.000000 0.000000 0.000000 3.679869 -57.880587 6.959430 -34.577156 0.573060 -31.407252 62.187308 1.496830 -10.179146 -24.909550 -7.143387 25.077745 0.000000 0.000000 0.000000 3.679869 -57.880587 6.959430 0.000000 0.000000 0.000000 9.189926 12.143458 -4.571297 1.811337 3.011566 -1.713780 0.000000 0.000000 0.000000 1.802745 3.005528 -1.686648 0.294107 4.268367 -1.228376 0.000000 0.000000 0.000000 1.802745 3.005528 -1.686648 -0.321634 5.900921 0.463510 -13.722280 6.130281 -29.065600 -179.999991 -60.902878 -179.999991 0.000000 0.000000 0.000000 1.802745 3.005528 -1.686648 0.896320 6.912410 -1.617419 -53.134535 32.659253 77.365942 -179.999814 71.358722 179.999800 0.000000 0.000000 0.000000 
-1.438941 80.056900 5.358887 0.000000 0.000000 0.000000 3.384036 -59.759251 6.114290 -31.812470 9.879722 25.985393 64.376370 -12.025071 -3.237127 -32.446274 5.236322 -11.360100 0.000000 0.000000 0.000000 3.384036 -59.759251 6.114290 -35.940882 0.798173 -30.334438 62.362899 2.633762 -10.200385 -24.204106 -6.423257 24.063381 0.000000 0.000000 0.000000 3.384036 -59.759251 6.114290 0.000000 0.000001 0.000000 9.359307 10.940803 -4.264134 1.947398 2.500753 -1.752773 0.000000 0.000000 0.000000 1.954958 2.491329 -1.724667 0.157382 4.519467 -1.185948 0.000000 0.000000 0.000000 1.954958 2.491329 -1.724667 -0.413426 6.098893 1.409512 -19.127549 3.078825 -25.363925 179.999841 -72.730525 179.999855 0.000000 0.000000 0.000000 1.954958 2.491329 -1.724667 1.134236 6.092598 -1.214578 -52.963022 35.555086 78.044501 -179.999841 69.886222 179.999814 0.000000 0.000000 0.000000 
-1.320611 80.023674 5.090164 0.000000 0.000000 0.000000 2.304949 -60.324955 4.480914 -31.295811 8.732161 25.948789 65.257642 -12.106842 -2.687152 -33.024340 6.853912 -11.545446 0.000000 0.000000 0.000000 2.304949 -60.324955 4.480914 -36.156361 0.173892 -29.614607 62.431829 3.061452 -10.193123 -23.956772 -5.929653 23.446206 0.000000 0.000000 0.000000 2.304949 -60.324955 4.480914 0.000000 -0.000001 0.000000 9.684008 9.233736 -3.827238 2.171639 1.813806 -1.772808 0.000000 0.000000 0.000000 2.195913 1.800115 -1.742829 -0.087347 4.742486 -1.181305 0.000000 0.000000 0.000000 2.195913 1.800115 -1.742829 -0.436131 5.894014 2.096172 -23.367990 -1.632327 -21.813338 -179.999404 -87.292386 -179.999472 0.000000 0.000000 0.000000 2.195913 1.800115 -1.742829 1.333967 5.544079 -0.855446 -52.220235 38.064402 78.000897 -179.999677 68.112791 179.999677 0.000000 0.000000 0.000000 
-1.217442 79.973412 4.890673 0.000000 0.000000 0.000000 0.860411 -59.505564 2.487722 -31.547319 7.145323 25.762972 66.459325 -12.128574 -1.711999 -33.147755 7.574205 -11.922468 0.000000 0.000000 0.000000 0.860411 -59.505564 2.487722 -35.328067 -1.218411 -29.325977 62.409535 2.963864 -10.163199 -24.207312 -5.859355 23.188417 0.000000 0.000000 0.000000 0.860411 -59.505564 2.487722 0.000000 0.000000 0.000000 10.061049 7.034921 -3.303187 2.441090 0.957139 -1.783378 0.000000 0.000000 0.000000 2.479790 0.937992 -1.751810 -0.376901 4.934798 -1.121931 0.000000 0.000000 0.000000 2.479790 0.937992 -1.751810 -0.408907 5.482840 2.468310 -26.135922 -7.509533 -18.397043 -0.000018 -77.254863 -0.000021 0.000000 0.000000 0.000000 2.479790 0.937992 -1.751810 1.474611 5.237588 -0.499378 -50.849430 40.216519 77.450534 179.999855 66.153927 -179.999868 0.000000 0.000000 0.000000 
-1.147066 79.899246 4.787308 0.000000 0.000000 0.000000 -0.362974 -57.519899 0.727277 -32.561571 5.247578 25.406384 67.801560 -11.515341 -0.411255 -32.792496 7.032362 -12.823757 0.000000 0.000000 0.000000 -0.362974 -57.519899 0.727277 -33.756397 -3.191536 -29.403059 62.211187 2.302635 -10.115159 -24.835239 -6.040526 23.363516 0.000000 0.000000 0.000000 -0.362974 -57.519899 0.727277 0.000000 0.000000 0.000000 10.351429 4.542322 -2.772149 2.681240 0.010317 -1.791739 0.000000 0.000000 0.000000 2.729206 -0.015047 -1.761255 -0.651220 5.075438 -1.018502 0.000000 0.000000 0.000000 2.729206 -0.015047 -1.761255 -0.382466 5.196445 2.627885 -27.583762 -13.678236 -15.661631 -0.000044 -63.556263 -0.000038 0.000000 0.000000 0.000000 2.729206 -0.015047 -1.761255 1.544396 5.187244 -0.105187 -48.645307 42.029576 76.361686 -179.999978 64.060979 179.999964 0.000000 0.000000 0.000000 
-1.128194 79.797867 4.786560 0.000000 0.000000 0.000000 -1.021514 -54.853044 -0.452663 -34.138208 3.304684 24.897009 69.044866 -10.311271 0.972351 -32.144124 5.427711 -14.102958 0.000000 0.000000 0.000000 -1.021514 -54.853044 -0.452663 -31.853707 -5.478552 -29.658286 61.816122 1.355297 -10.059008 -25.641836 -6.449104 23.847081 0.000000 0.000000 0.000000 -1.021514 -54.853044 -0.452663 0.000000 -0.000003 0.000000 10.430471 2.177932 -2.332719 2.813805 -0.840658 -1.801727 0.000000 0.000000 0.000000 2.865118 -0.871778 -1.777143 -0.825995 5.121315 -0.887718 0.000000 0.000000 0.000000 2.865118 -0.871778 -1.777143 -0.404165 5.289115 2.767747 -29.128117 -18.691733 -15.027613 0.000004 -54.533101 0.000007 0.000000 0.000000 0.000000 2.865118 -0.871778 -1.777143 1.537938 5.623553 0.273585 -45.141772 43.252702 74.287446 179.999964 61.784833 -179.999991 0.000000 0.000000 0.000000 
-1.172362 79.683647 4.873739 0.000000 0.000000 0.000000 -1.111615 -52.069278 -1.028172 -35.937532 1.576556 24.320634 69.993484 -9.348698 2.123536 -31.447608 3.657567 -15.139973 0.000000 0.000000 0.000000 -1.111615 -52.069278 -1.028172 -29.998273 -7.755679 -29.923066 61.253068 0.348098 -10.004058 -26.432793 -6.970687 24.485291 0.000000 0.000000 0.000000 -1.111615 -52.069278 -1.028172 0.000000 0.000000 0.000000 10.235582 0.443243 -2.072309 2.790068 -1.385875 -1.817279 0.000000 0.000000 0.000000 2.841106 -1.420784 -1.802726 -0.857908 5.036804 -0.744080 0.000000 0.000000 0.000000 2.841106 -1.420784 -1.802726 -0.481386 5.760649 2.984567 -32.185682 -20.330179 -17.959122 0.000011 -53.183958 0.000015 0.000000 0.000000 0.000000 2.841106 -1.420784 -1.802726 1.468112 6.765448 0.543946 -40.081801 43.505727 70.878287 -179.999978 59.333484 179.999964 0.000000 0.000000 0.000000 
-1.270354 79.584732 5.024542 0.000000 0.000000 0.000000 -0.814805 -49.567099 -1.122932 -37.606031 0.156538 23.798741 70.539462 -8.685044 2.769952 -30.796053 1.954921 -15.825492 0.000000 0.000000 0.000000 -0.814805 -49.567099 -1.122932 -28.412660 -9.745918 -30.144934 60.602984 -0.582323 -9.957554 -27.100343 -7.507455 25.134748 0.000000 0.000000 0.000000 -0.814805 -49.567099 -1.122932 0.000000 0.000000 0.000000 9.811659 -0.311424 -2.038373 2.618569 -1.496524 -1.851614 0.000000 0.000000 0.000000 2.668887 -1.533080 -1.848478 -0.796031 4.819034 -0.601252 0.000000 0.000000 0.000000 2.668887 -1.533080 -1.848478 -0.570867 6.342866 3.155754 -37.457362 -20.769352 -24.567647 0.000016 -55.027501 0.000034 0.000000 0.000000 0.000000 2.668887 -1.533080 -1.848478 1.359587 8.623761 0.639041 -33.918094 42.555101 66.380881 -179.999964 56.897457 179.999978 0.000000 0.000000 0.000000 
